<svg width="374" height="225" viewBox="0 0 374 225" fill="none" xmlns="http://www.w3.org/2000/svg">
<rect x="1.5" y="1.5" width="371" height="222" rx="8.5" stroke="white" stroke-width="3"/>
<path d="M19.63 165.056V163.222L20.834 163.152V157.048L19.63 156.978V155.144L22.01 155.256L24.39 155.144V156.978L23.186 157.048V163.152L24.39 163.222V165.056L22.01 164.944L19.63 165.056ZM30.3076 165V155.2H32.5336L36.2996 161.43V155.2H38.4836V165H36.2576L32.4916 158.77V165H30.3076ZM44.4012 163.292V156.908L46.1092 155.2H51.0373V157.342H46.8372V162.858H51.1773V165H46.1092L44.4012 163.292ZM56.8425 165V155.2H59.1945V158.896H62.3585V155.2H64.7105V165H62.3585V161.024H59.1945V165H56.8425ZM70.6774 165V155.2H73.0294V163.04H75.6614V161.08H77.7334V165H70.6774ZM83.3628 165.056V163.222L84.6228 163.152V157.524L83.4188 157.65V155.76L86.9748 155.2V163.152L88.1228 163.222V165.056L85.7428 164.944L83.3628 165.056ZM93.9984 163.292V156.908L95.7064 155.2H100.13L101.838 156.908V163.292L100.13 165H95.7064L93.9984 163.292ZM96.3504 157.328V162.872H99.4864V157.328H96.3504ZM107.724 163.292V156.908L109.432 155.2H113.856L115.564 156.908V163.292L113.856 165H109.432L107.724 163.292ZM110.076 157.328V162.872H113.212V157.328H110.076ZM121.449 163.292V156.908L123.157 155.2H127.581L129.289 156.908V163.292L127.581 165H123.157L121.449 163.292ZM123.801 157.328V162.872H126.937V157.328H123.801ZM135.175 163.292V156.908L136.883 155.2H141.307L143.015 156.908V163.292L141.307 165H136.883L135.175 163.292ZM137.527 157.328V162.872H140.663V157.328H137.527ZM148.9 163.292V156.908L150.608 155.2H155.032L156.74 156.908V163.292L155.032 165H150.608L148.9 163.292ZM151.252 157.328V162.872H154.388V157.328H151.252ZM162.626 163.292V156.908L164.334 155.2H168.758L170.466 156.908V163.292L168.758 165H164.334L162.626 163.292ZM164.978 157.328V162.872H168.114V157.328H164.978ZM176.351 163.292V156.908L178.059 155.2H182.483L184.191 156.908V163.292L182.483 165H178.059L176.351 163.292ZM178.703 157.328V162.872H181.839V157.328H178.703ZM190.077 163.292V156.908L191.785 155.2H196.209L197.917 156.908V163.292L196.209 165H191.785L190.077 163.292ZM192.429 157.328V162.872H195.565V157.328H192.429ZM203.802 165.056V163.222L205.062 163.152V157.524L203.858 157.65V155.76L207.414 155.2V163.152L208.562 163.222V165.056L206.182 164.944L203.802 165.056ZM214.942 165L219.366 158.546V157.16H216.496V158.728H214.242V155.2H221.718V158.896L217.756 165H214.942ZM227.188 162.13V160.03L234.608 157.16V159.288L229.68 161.08L234.608 162.872V165L227.188 162.13ZM240.202 162.13V160.03L247.622 157.16V159.288L242.694 161.08L247.622 162.872V165L240.202 162.13ZM253.217 162.13V160.03L260.637 157.16V159.288L255.709 161.08L260.637 162.872V165L253.217 162.13ZM266.231 162.13V160.03L273.651 157.16V159.288L268.723 161.08L273.651 162.872V165L266.231 162.13ZM279.246 162.13V160.03L286.666 157.16V159.288L281.738 161.08L286.666 162.872V165L279.246 162.13ZM292.26 162.13V160.03L299.68 157.16V159.288L294.752 161.08L299.68 162.872V165L292.26 162.13ZM305.275 162.13V160.03L312.695 157.16V159.288L307.767 161.08L312.695 162.872V165L305.275 162.13ZM318.289 162.13V160.03L325.709 157.16V159.288L320.781 161.08L325.709 162.872V165L318.289 162.13ZM331.304 162.13V160.03L338.724 157.16V159.288L333.796 161.08L338.724 162.872V165L331.304 162.13ZM344.318 162.13V160.03L351.738 157.16V159.288L346.81 161.08L351.738 162.872V165L344.318 162.13ZM27.19 180.956V183H19.63V177.75L24.838 177.05V175.244H19.686V173.2H25.482L27.19 174.908V178.688L21.982 179.388V180.956H27.19ZM34.1884 183.056V181.222L35.4484 181.152V175.524L34.2444 175.65V173.76L37.8004 173.2V181.152L38.9484 181.222V183.056L36.5684 182.944L34.1884 183.056ZM52.006 183H45.734V181.04H51.208V178.94H46.574V177.064H50.928V175.16H45.874V173.2H51.726L53.35 174.824V177.19L52.468 177.876L53.63 178.8V181.376L52.006 183ZM63.011 177.162H65.727V175.076H63.011V177.162ZM62.815 181.124H66.049V178.786H62.815V181.124ZM61.919 183L60.211 181.292V178.884L61.457 177.876L60.491 177.106V174.908L62.199 173.2H66.539L68.247 174.908V177.106L67.281 177.876L68.527 178.884V181.292L66.819 183H61.919ZM75.8518 183L80.2758 176.546V175.16H77.4058V176.728H75.1518V173.2H82.6278V176.896L78.6658 183H75.8518ZM89.9317 183L94.3557 176.546V175.16H91.4857V176.728H89.2317V173.2H96.7077V176.896L92.7457 183H89.9317ZM111.068 180.956V183H103.508V177.75L108.716 177.05V175.244H103.564V173.2H109.36L111.068 174.908V178.688L105.86 179.388V180.956H111.068ZM118.066 183.056V181.222L119.326 181.152V175.524L118.122 175.65V173.76L121.678 173.2V181.152L122.826 181.222V183.056L120.446 182.944L118.066 183.056ZM137.381 180.956V183H129.821V177.75L135.029 177.05V175.244H129.877V173.2H135.673L137.381 174.908V178.688L132.173 179.388V180.956H137.381ZM144.884 183L149.308 176.546V175.16H146.438V176.728H144.184V173.2H151.66V176.896L147.698 183H144.884ZM158.964 183L163.388 176.546V175.16H160.518V176.728H158.264V173.2H165.74V176.896L161.778 183H158.964ZM172.582 183V173.2H179.302V175.328H174.934V177.904H179.022V179.948H174.934V183H172.582ZM193.646 180.956V183H186.086V177.75L191.294 177.05V175.244H186.142V173.2H191.938L193.646 174.908V178.688L188.438 179.388V180.956H193.646ZM208.205 180.956V183H200.645V177.75L205.853 177.05V175.244H200.701V173.2H206.497L208.205 174.908V178.688L202.997 179.388V180.956H208.205ZM215.203 183.056V181.222L216.463 181.152V175.524L215.259 175.65V173.76L218.815 173.2V181.152L219.963 181.222V183.056L217.583 182.944L215.203 183.056ZM234.519 180.956V183H226.959V177.75L232.167 177.05V175.244H227.015V173.2H232.811L234.519 174.908V178.688L229.311 179.388V180.956H234.519ZM247.579 183H241.307V181.04H246.781V178.94H242.147V177.064H246.501V175.16H241.447V173.2H247.299L248.923 174.824V177.19L248.041 177.876L249.203 178.8V181.376L247.579 183ZM258.584 177.162H261.3V175.076H258.584V177.162ZM258.388 181.124H261.622V178.786H258.388V181.124ZM257.492 183L255.784 181.292V178.884L257.03 177.876L256.064 177.106V174.908L257.772 173.2H262.112L263.82 174.908V177.106L262.854 177.876L264.1 178.884V181.292L262.392 183H257.492ZM273.539 177.162H276.255V175.076H273.539V177.162ZM273.343 181.124H276.577V178.786H273.343V181.124ZM272.447 183L270.739 181.292V178.884L271.985 177.876L271.019 177.106V174.908L272.727 173.2H277.067L278.775 174.908V177.106L277.809 177.876L279.055 178.884V181.292L277.347 183H272.447ZM291.938 183H285.666V181.04H291.14V178.94H286.506V177.064H290.86V175.16H285.806V173.2H291.658L293.282 174.824V177.19L292.4 177.876L293.562 178.8V181.376L291.938 183ZM300.829 183L305.253 176.546V175.16H302.383V176.728H300.129V173.2H307.605V176.896L303.643 183H300.829ZM320.62 173.2L322.244 174.824V181.376L320.62 183H314.922V180.956H319.892V179.444H315.426L314.404 178.422V174.824L316.028 173.2H320.62ZM319.892 175.16H316.756V177.82H319.892V175.16ZM329.18 180.48L329.544 173.2H331.868L331.532 178.352H334.556V173.2H336.908V183H334.556V180.48H329.18ZM343.945 181.292V174.908L345.653 173.2H350.077L351.785 174.908V181.292L350.077 183H345.653L343.945 181.292ZM346.297 175.328V180.872H349.433V175.328H346.297ZM19.154 201L21.31 191.2H25.874L28.03 201H25.538L25.132 198.9H22.052L21.646 201H19.154ZM22.346 197.206H24.838L24.026 193.062H23.158L22.346 197.206ZM33.3115 197.024H36.3075V193.076H33.3115V197.024ZM38.6595 192.908V197.192L36.9515 198.9H33.3115V201H30.9595V191.2H36.9515L38.6595 192.908ZM41.8232 201V191.2H48.7112V193.16H44.1752V195.064H48.0112V196.94H44.1752V199.04H48.8512V201H41.8232ZM52.0443 201V191.2H54.3963V199.04H57.0283V197.08H59.1003V201H52.0443ZM62.2517 201V191.2H64.6037V199.04H67.2357V197.08H69.3077V201H62.2517ZM72.4171 201.056V199.222L73.6211 199.152V193.048L72.4171 192.978V191.144L74.7971 191.256L77.1771 191.144V192.978L75.9731 193.048V199.152L77.1771 199.222V201.056L74.7971 200.944L72.4171 201.056ZM82.9267 198.956H85.8107V193.244H82.9267V198.956ZM80.5747 201V191.2H86.4547L88.1627 192.908V199.292L86.4547 201H80.5747ZM91.5195 199.292V192.908L93.2275 191.2H98.0715L99.7795 192.908V199.292L98.0715 201H93.2275L91.5195 199.292ZM93.9555 193.244V198.956H97.3435V193.244H93.9555ZM102.925 198.13V196.03L110.345 193.16V195.288L105.417 197.08L110.345 198.872V201L102.925 198.13ZM113.154 201L115.31 191.2H119.874L122.03 201H119.538L119.132 198.9H116.052L115.646 201H113.154ZM116.346 197.206H118.838L118.026 193.062H117.158L116.346 197.206ZM127.311 197.024H130.307V193.076H127.311V197.024ZM132.659 192.908V197.192L130.951 198.9H127.311V201H124.959V191.2H130.951L132.659 192.908ZM135.823 201V191.2H142.711V193.16H138.175V195.064H142.011V196.94H138.175V199.04H142.851V201H135.823ZM146.044 201V191.2H148.396V199.04H151.028V197.08H153.1V201H146.044ZM156.251 201V191.2H158.603V199.04H161.235V197.08H163.307V201H156.251ZM166.417 201.056V199.222L167.621 199.152V193.048L166.417 192.978V191.144L168.797 191.256L171.177 191.144V192.978L169.973 193.048V199.152L171.177 199.222V201.056L168.797 200.944L166.417 201.056ZM176.926 198.956H179.81V193.244H176.926V198.956ZM174.574 201V191.2H180.454L182.162 192.908V199.292L180.454 201H174.574ZM185.519 199.292V192.908L187.227 191.2H192.071L193.779 192.908V199.292L192.071 201H187.227L185.519 199.292ZM187.955 193.244V198.956H191.343V193.244H187.955ZM196.925 198.13V196.03L204.345 193.16V195.288L199.417 197.08L204.345 198.872V201L196.925 198.13ZM207.671 201V191.2H209.897L213.663 197.43V191.2H215.847V201H213.621L209.855 194.77V201H207.671ZM219.245 199.292V192.908L220.953 191.2H225.797L227.505 192.908V199.292L225.797 201H220.953L219.245 199.292ZM221.681 193.244V198.956H225.069V193.244H221.681ZM230.902 201V191.2H233.73L235.69 195.372L237.65 191.2H240.478V201H238.168V194.196L236.194 198.256H235.186L233.212 194.196V201H230.902ZM246.278 195.162H249.316V193.076H246.278V195.162ZM246.278 199.124H249.554V196.786H246.278V199.124ZM251.71 192.824V195.134L250.884 195.82L251.99 196.744V199.376L250.366 201H243.926V191.2H250.086L251.71 192.824ZM257.511 196.352H260.731V193.076H257.511V196.352ZM263.083 192.908V196.45L261.949 197.584L263.643 201H261.011L259.765 198.228H257.511V201H255.159V191.2H261.375L263.083 192.908ZM266.447 201V191.2H273.335V193.16H268.799V195.064H272.635V196.94H268.799V199.04H273.475V201H266.447ZM276.416 198.13V196.03L283.836 193.16V195.288L278.908 197.08L283.836 198.872V201L276.416 198.13ZM287.162 201V191.2H289.388L293.154 197.43V191.2H295.338V201H293.112L289.346 194.77V201H287.162ZM298.736 199.292V192.908L300.444 191.2H305.288L306.996 192.908V199.292L305.288 201H300.444L298.736 199.292ZM301.172 193.244V198.956H304.56V193.244H301.172ZM310.393 201V191.2H313.221L315.181 195.372L317.141 191.2H319.969V201H317.659V194.196L315.685 198.256H314.677L312.703 194.196V201H310.393ZM325.769 195.162H328.807V193.076H325.769V195.162ZM325.769 199.124H329.045V196.786H325.769V199.124ZM331.201 192.824V195.134L330.375 195.82L331.481 196.744V199.376L329.857 201H323.417V191.2H329.577L331.201 192.824ZM337.002 196.352H340.222V193.076H337.002V196.352ZM342.574 192.908V196.45L341.44 197.584L343.134 201H340.502L339.256 198.228H337.002V201H334.65V191.2H340.866L342.574 192.908ZM345.938 201V191.2H352.826V193.16H348.29V195.064H352.126V196.94H348.29V199.04H352.966V201H345.938Z" fill="white"/>
<g clip-path="url(#clip0_13_2)">
<path d="M100 28H19V109H100V28Z" fill="#C73425"/>
<mask id="mask0_13_2" style="mask-type:luminance" maskUnits="userSpaceOnUse" x="23" y="32" width="73" height="73">
<path d="M26.3564 52.5215H23.9043V54.9736H26.3564V52.5215Z" fill="white"/>
<path d="M26.3564 54.9736H23.9043V57.4258H26.3564V54.9736Z" fill="white"/>
<path d="M26.3564 57.4258H23.9043V59.8779H26.3564V57.4258Z" fill="white"/>
<path d="M26.3564 72.1387H23.9043V74.5908H26.3564V72.1387Z" fill="white"/>
<path d="M26.3564 77.043H23.9043V79.4951H26.3564V77.043Z" fill="white"/>
<path d="M28.8086 52.5215H26.3564V54.9736H28.8086V52.5215Z" fill="white"/>
<path d="M28.8086 54.9736H26.3564V57.4258H28.8086V54.9736Z" fill="white"/>
<path d="M28.8086 62.3301H26.3564V64.7822H28.8086V62.3301Z" fill="white"/>
<path d="M28.8086 64.7822H26.3564V67.2344H28.8086V64.7822Z" fill="white"/>
<path d="M28.8086 67.2344H26.3564V69.6865H28.8086V67.2344Z" fill="white"/>
<path d="M28.8086 69.6865H26.3564V72.1387H28.8086V69.6865Z" fill="white"/>
<path d="M28.8086 72.1387H26.3564V74.5908H28.8086V72.1387Z" fill="white"/>
<path d="M28.8086 77.043H26.3564V79.4951H28.8086V77.043Z" fill="white"/>
<path d="M31.2607 52.5215H28.8086V54.9736H31.2607V52.5215Z" fill="white"/>
<path d="M31.2607 54.9736H28.8086V57.4258H31.2607V54.9736Z" fill="white"/>
<path d="M31.2607 59.8779H28.8086V62.3301H31.2607V59.8779Z" fill="white"/>
<path d="M31.2607 64.7822H28.8086V67.2344H31.2607V64.7822Z" fill="white"/>
<path d="M31.2607 77.043H28.8086V79.4951H31.2607V77.043Z" fill="white"/>
<path d="M31.2607 79.4951H28.8086V81.9473H31.2607V79.4951Z" fill="white"/>
<path d="M33.7129 52.5215H31.2607V54.9736H33.7129V52.5215Z" fill="white"/>
<path d="M33.7129 57.4258H31.2607V59.8779H33.7129V57.4258Z" fill="white"/>
<path d="M33.7129 59.8779H31.2607V62.3301H33.7129V59.8779Z" fill="white"/>
<path d="M33.7129 62.3301H31.2607V64.7822H33.7129V62.3301Z" fill="white"/>
<path d="M33.7129 64.7822H31.2607V67.2344H33.7129V64.7822Z" fill="white"/>
<path d="M33.7129 67.2344H31.2607V69.6865H33.7129V67.2344Z" fill="white"/>
<path d="M33.7129 77.043H31.2607V79.4951H33.7129V77.043Z" fill="white"/>
<path d="M36.165 52.5215H33.7129V54.9736H36.165V52.5215Z" fill="white"/>
<path d="M36.165 59.8779H33.7129V62.3301H36.165V59.8779Z" fill="white"/>
<path d="M36.165 64.7822H33.7129V67.2344H36.165V64.7822Z" fill="white"/>
<path d="M36.165 67.2344H33.7129V69.6865H36.165V67.2344Z" fill="white"/>
<path d="M36.165 72.1387H33.7129V74.5908H36.165V72.1387Z" fill="white"/>
<path d="M36.165 79.4951H33.7129V81.9473H36.165V79.4951Z" fill="white"/>
<path d="M38.6172 54.9736H36.165V57.4258H38.6172V54.9736Z" fill="white"/>
<path d="M38.6172 69.6865H36.165V72.1387H38.6172V69.6865Z" fill="white"/>
<path d="M38.6172 74.5908H36.165V77.043H38.6172V74.5908Z" fill="white"/>
<path d="M38.6172 79.4951H36.165V81.9473H38.6172V79.4951Z" fill="white"/>
<path d="M41.0693 52.5215H38.6172V54.9736H41.0693V52.5215Z" fill="white"/>
<path d="M41.0693 57.4258H38.6172V59.8779H41.0693V57.4258Z" fill="white"/>
<path d="M41.0693 62.3301H38.6172V64.7822H41.0693V62.3301Z" fill="white"/>
<path d="M41.0693 67.2344H38.6172V69.6865H41.0693V67.2344Z" fill="white"/>
<path d="M41.0693 72.1387H38.6172V74.5908H41.0693V72.1387Z" fill="white"/>
<path d="M41.0693 77.043H38.6172V79.4951H41.0693V77.043Z" fill="white"/>
<path d="M41.0693 81.9473H38.6172V84.3994H41.0693V81.9473Z" fill="white"/>
<path d="M43.5215 52.5215H41.0693V54.9736H43.5215V52.5215Z" fill="white"/>
<path d="M43.5215 54.9736H41.0693V57.4258H43.5215V54.9736Z" fill="white"/>
<path d="M43.5215 59.8779H41.0693V62.3301H43.5215V59.8779Z" fill="white"/>
<path d="M43.5215 72.1387H41.0693V74.5908H43.5215V72.1387Z" fill="white"/>
<path d="M43.5215 74.5908H41.0693V77.043H43.5215V74.5908Z" fill="white"/>
<path d="M43.5215 77.043H41.0693V79.4951H43.5215V77.043Z" fill="white"/>
<path d="M45.9736 35.3564H43.5215V37.8086H45.9736V35.3564Z" fill="white"/>
<path d="M45.9736 37.8086H43.5215V40.2607H45.9736V37.8086Z" fill="white"/>
<path d="M45.9736 42.7129H43.5215V45.165H45.9736V42.7129Z" fill="white"/>
<path d="M45.9736 47.6172H43.5215V50.0693H45.9736V47.6172Z" fill="white"/>
<path d="M45.9736 50.0693H43.5215V52.5215H45.9736V50.0693Z" fill="white"/>
<path d="M45.9736 54.9736H43.5215V57.4258H45.9736V54.9736Z" fill="white"/>
<path d="M45.9736 57.4258H43.5215V59.8779H45.9736V57.4258Z" fill="white"/>
<path d="M45.9736 59.8779H43.5215V62.3301H45.9736V59.8779Z" fill="white"/>
<path d="M45.9736 64.7822H43.5215V67.2344H45.9736V64.7822Z" fill="white"/>
<path d="M45.9736 67.2344H43.5215V69.6865H45.9736V67.2344Z" fill="white"/>
<path d="M45.9736 69.6865H43.5215V72.1387H45.9736V69.6865Z" fill="white"/>
<path d="M45.9736 72.1387H43.5215V74.5908H45.9736V72.1387Z" fill="white"/>
<path d="M45.9736 77.043H43.5215V79.4951H45.9736V77.043Z" fill="white"/>
<path d="M45.9736 81.9473H43.5215V84.3994H45.9736V81.9473Z" fill="white"/>
<path d="M45.9736 86.8516H43.5215V89.3037H45.9736V86.8516Z" fill="white"/>
<path d="M45.9736 91.7559H43.5215V94.208H45.9736V91.7559Z" fill="white"/>
<path d="M45.9736 94.208H43.5215V96.6602H45.9736V94.208Z" fill="white"/>
<path d="M45.9736 96.6602H43.5215V99.1123H45.9736V96.6602Z" fill="white"/>
<path d="M45.9736 99.1123H43.5215V101.564H45.9736V99.1123Z" fill="white"/>
<path d="M45.9736 101.564H43.5215V104.017H45.9736V101.564Z" fill="white"/>
<path d="M48.4258 32.9043H45.9736V35.3564H48.4258V32.9043Z" fill="white"/>
<path d="M48.4258 35.3564H45.9736V37.8086H48.4258V35.3564Z" fill="white"/>
<path d="M48.4258 40.2607H45.9736V42.7129H48.4258V40.2607Z" fill="white"/>
<path d="M48.4258 42.7129H45.9736V45.165H48.4258V42.7129Z" fill="white"/>
<path d="M48.4258 50.0693H45.9736V52.5215H48.4258V50.0693Z" fill="white"/>
<path d="M48.4258 62.3301H45.9736V64.7822H48.4258V62.3301Z" fill="white"/>
<path d="M48.4258 77.043H45.9736V79.4951H48.4258V77.043Z" fill="white"/>
<path d="M48.4258 79.4951H45.9736V81.9473H48.4258V79.4951Z" fill="white"/>
<path d="M48.4258 86.8516H45.9736V89.3037H48.4258V86.8516Z" fill="white"/>
<path d="M48.4258 94.208H45.9736V96.6602H48.4258V94.208Z" fill="white"/>
<path d="M48.4258 101.564H45.9736V104.017H48.4258V101.564Z" fill="white"/>
<path d="M50.8779 40.2607H48.4258V42.7129H50.8779V40.2607Z" fill="white"/>
<path d="M50.8779 45.165H48.4258V47.6172H50.8779V45.165Z" fill="white"/>
<path d="M50.8779 47.6172H48.4258V50.0693H50.8779V47.6172Z" fill="white"/>
<path d="M50.8779 50.0693H48.4258V52.5215H50.8779V50.0693Z" fill="white"/>
<path d="M50.8779 52.5215H48.4258V54.9736H50.8779V52.5215Z" fill="white"/>
<path d="M50.8779 54.9736H48.4258V57.4258H50.8779V54.9736Z" fill="white"/>
<path d="M50.8779 62.3301H48.4258V64.7822H50.8779V62.3301Z" fill="white"/>
<path d="M50.8779 64.7822H48.4258V67.2344H50.8779V64.7822Z" fill="white"/>
<path d="M50.8779 69.6865H48.4258V72.1387H50.8779V69.6865Z" fill="white"/>
<path d="M50.8779 72.1387H48.4258V74.5908H50.8779V72.1387Z" fill="white"/>
<path d="M50.8779 77.043H48.4258V79.4951H50.8779V77.043Z" fill="white"/>
<path d="M50.8779 81.9473H48.4258V84.3994H50.8779V81.9473Z" fill="white"/>
<path d="M50.8779 89.3037H48.4258V91.7559H50.8779V89.3037Z" fill="white"/>
<path d="M50.8779 91.7559H48.4258V94.208H50.8779V91.7559Z" fill="white"/>
<path d="M50.8779 99.1123H48.4258V101.564H50.8779V99.1123Z" fill="white"/>
<path d="M50.8779 101.564H48.4258V104.017H50.8779V101.564Z" fill="white"/>
<path d="M53.3301 32.9043H50.8779V35.3564H53.3301V32.9043Z" fill="white"/>
<path d="M53.3301 42.7129H50.8779V45.165H53.3301V42.7129Z" fill="white"/>
<path d="M53.3301 50.0693H50.8779V52.5215H53.3301V50.0693Z" fill="white"/>
<path d="M53.3301 54.9736H50.8779V57.4258H53.3301V54.9736Z" fill="white"/>
<path d="M53.3301 59.8779H50.8779V62.3301H53.3301V59.8779Z" fill="white"/>
<path d="M53.3301 62.3301H50.8779V64.7822H53.3301V62.3301Z" fill="white"/>
<path d="M53.3301 69.6865H50.8779V72.1387H53.3301V69.6865Z" fill="white"/>
<path d="M53.3301 74.5908H50.8779V77.043H53.3301V74.5908Z" fill="white"/>
<path d="M53.3301 77.043H50.8779V79.4951H53.3301V77.043Z" fill="white"/>
<path d="M53.3301 84.3994H50.8779V86.8516H53.3301V84.3994Z" fill="white"/>
<path d="M53.3301 86.8516H50.8779V89.3037H53.3301V86.8516Z" fill="white"/>
<path d="M53.3301 89.3037H50.8779V91.7559H53.3301V89.3037Z" fill="white"/>
<path d="M53.3301 99.1123H50.8779V101.564H53.3301V99.1123Z" fill="white"/>
<path d="M55.7822 37.8086H53.3301V40.2607H55.7822V37.8086Z" fill="white"/>
<path d="M55.7822 47.6172H53.3301V50.0693H55.7822V47.6172Z" fill="white"/>
<path d="M55.7822 50.0693H53.3301V52.5215H55.7822V50.0693Z" fill="white"/>
<path d="M55.7822 52.5215H53.3301V54.9736H55.7822V52.5215Z" fill="white"/>
<path d="M55.7822 57.4258H53.3301V59.8779H55.7822V57.4258Z" fill="white"/>
<path d="M55.7822 59.8779H53.3301V62.3301H55.7822V59.8779Z" fill="white"/>
<path d="M55.7822 74.5908H53.3301V77.043H55.7822V74.5908Z" fill="white"/>
<path d="M55.7822 77.043H53.3301V79.4951H55.7822V77.043Z" fill="white"/>
<path d="M55.7822 79.4951H53.3301V81.9473H55.7822V79.4951Z" fill="white"/>
<path d="M55.7822 86.8516H53.3301V89.3037H55.7822V86.8516Z" fill="white"/>
<path d="M55.7822 89.3037H53.3301V91.7559H55.7822V89.3037Z" fill="white"/>
<path d="M55.7822 96.6602H53.3301V99.1123H55.7822V96.6602Z" fill="white"/>
<path d="M58.2344 40.2607H55.7822V42.7129H58.2344V40.2607Z" fill="white"/>
<path d="M58.2344 50.0693H55.7822V52.5215H58.2344V50.0693Z" fill="white"/>
<path d="M58.2344 62.3301H55.7822V64.7822H58.2344V62.3301Z" fill="white"/>
<path d="M58.2344 64.7822H55.7822V67.2344H58.2344V64.7822Z" fill="white"/>
<path d="M58.2344 67.2344H55.7822V69.6865H58.2344V67.2344Z" fill="white"/>
<path d="M58.2344 81.9473H55.7822V84.3994H58.2344V81.9473Z" fill="white"/>
<path d="M58.2344 84.3994H55.7822V86.8516H58.2344V84.3994Z" fill="white"/>
<path d="M58.2344 86.8516H55.7822V89.3037H58.2344V86.8516Z" fill="white"/>
<path d="M58.2344 89.3037H55.7822V91.7559H58.2344V89.3037Z" fill="white"/>
<path d="M58.2344 101.564H55.7822V104.017H58.2344V101.564Z" fill="white"/>
<path d="M60.6865 35.3564H58.2344V37.8086H60.6865V35.3564Z" fill="white"/>
<path d="M60.6865 37.8086H58.2344V40.2607H60.6865V37.8086Z" fill="white"/>
<path d="M60.6865 42.7129H58.2344V45.165H60.6865V42.7129Z" fill="white"/>
<path d="M60.6865 45.165H58.2344V47.6172H60.6865V45.165Z" fill="white"/>
<path d="M60.6865 47.6172H58.2344V50.0693H60.6865V47.6172Z" fill="white"/>
<path d="M60.6865 50.0693H58.2344V52.5215H60.6865V50.0693Z" fill="white"/>
<path d="M60.6865 52.5215H58.2344V54.9736H60.6865V52.5215Z" fill="white"/>
<path d="M60.6865 54.9736H58.2344V57.4258H60.6865V54.9736Z" fill="white"/>
<path d="M60.6865 62.3301H58.2344V64.7822H60.6865V62.3301Z" fill="white"/>
<path d="M60.6865 64.7822H58.2344V67.2344H60.6865V64.7822Z" fill="white"/>
<path d="M60.6865 69.6865H58.2344V72.1387H60.6865V69.6865Z" fill="white"/>
<path d="M60.6865 72.1387H58.2344V74.5908H60.6865V72.1387Z" fill="white"/>
<path d="M60.6865 74.5908H58.2344V77.043H60.6865V74.5908Z" fill="white"/>
<path d="M60.6865 86.8516H58.2344V89.3037H60.6865V86.8516Z" fill="white"/>
<path d="M60.6865 89.3037H58.2344V91.7559H60.6865V89.3037Z" fill="white"/>
<path d="M60.6865 96.6602H58.2344V99.1123H60.6865V96.6602Z" fill="white"/>
<path d="M60.6865 101.564H58.2344V104.017H60.6865V101.564Z" fill="white"/>
<path d="M63.1387 32.9043H60.6865V35.3564H63.1387V32.9043Z" fill="white"/>
<path d="M63.1387 35.3564H60.6865V37.8086H63.1387V35.3564Z" fill="white"/>
<path d="M63.1387 45.165H60.6865V47.6172H63.1387V45.165Z" fill="white"/>
<path d="M63.1387 59.8779H60.6865V62.3301H63.1387V59.8779Z" fill="white"/>
<path d="M63.1387 62.3301H60.6865V64.7822H63.1387V62.3301Z" fill="white"/>
<path d="M63.1387 72.1387H60.6865V74.5908H63.1387V72.1387Z" fill="white"/>
<path d="M63.1387 79.4951H60.6865V81.9473H63.1387V79.4951Z" fill="white"/>
<path d="M63.1387 89.3037H60.6865V91.7559H63.1387V89.3037Z" fill="white"/>
<path d="M63.1387 101.564H60.6865V104.017H63.1387V101.564Z" fill="white"/>
<path d="M65.5908 37.8086H63.1387V40.2607H65.5908V37.8086Z" fill="white"/>
<path d="M65.5908 42.7129H63.1387V45.165H65.5908V42.7129Z" fill="white"/>
<path d="M65.5908 47.6172H63.1387V50.0693H65.5908V47.6172Z" fill="white"/>
<path d="M65.5908 52.5215H63.1387V54.9736H65.5908V52.5215Z" fill="white"/>
<path d="M65.5908 57.4258H63.1387V59.8779H65.5908V57.4258Z" fill="white"/>
<path d="M65.5908 59.8779H63.1387V62.3301H65.5908V59.8779Z" fill="white"/>
<path d="M65.5908 62.3301H63.1387V64.7822H65.5908V62.3301Z" fill="white"/>
<path d="M65.5908 64.7822H63.1387V67.2344H65.5908V64.7822Z" fill="white"/>
<path d="M65.5908 81.9473H63.1387V84.3994H65.5908V81.9473Z" fill="white"/>
<path d="M65.5908 84.3994H63.1387V86.8516H65.5908V84.3994Z" fill="white"/>
<path d="M65.5908 86.8516H63.1387V89.3037H65.5908V86.8516Z" fill="white"/>
<path d="M65.5908 89.3037H63.1387V91.7559H65.5908V89.3037Z" fill="white"/>
<path d="M65.5908 91.7559H63.1387V94.208H65.5908V91.7559Z" fill="white"/>
<path d="M65.5908 94.208H63.1387V96.6602H65.5908V94.208Z" fill="white"/>
<path d="M65.5908 99.1123H63.1387V101.564H65.5908V99.1123Z" fill="white"/>
<path d="M65.5908 101.564H63.1387V104.017H65.5908V101.564Z" fill="white"/>
<path d="M68.043 35.3564H65.5908V37.8086H68.043V35.3564Z" fill="white"/>
<path d="M68.043 52.5215H65.5908V54.9736H68.043V52.5215Z" fill="white"/>
<path d="M68.043 54.9736H65.5908V57.4258H68.043V54.9736Z" fill="white"/>
<path d="M68.043 67.2344H65.5908V69.6865H68.043V67.2344Z" fill="white"/>
<path d="M68.043 69.6865H65.5908V72.1387H68.043V69.6865Z" fill="white"/>
<path d="M68.043 79.4951H65.5908V81.9473H68.043V79.4951Z" fill="white"/>
<path d="M68.043 81.9473H65.5908V84.3994H68.043V81.9473Z" fill="white"/>
<path d="M68.043 99.1123H65.5908V101.564H68.043V99.1123Z" fill="white"/>
<path d="M68.043 101.564H65.5908V104.017H68.043V101.564Z" fill="white"/>
<path d="M70.4951 32.9043H68.043V35.3564H70.4951V32.9043Z" fill="white"/>
<path d="M70.4951 37.8086H68.043V40.2607H70.4951V37.8086Z" fill="white"/>
<path d="M70.4951 40.2607H68.043V42.7129H70.4951V40.2607Z" fill="white"/>
<path d="M70.4951 42.7129H68.043V45.165H70.4951V42.7129Z" fill="white"/>
<path d="M70.4951 47.6172H68.043V50.0693H70.4951V47.6172Z" fill="white"/>
<path d="M70.4951 50.0693H68.043V52.5215H70.4951V50.0693Z" fill="white"/>
<path d="M70.4951 52.5215H68.043V54.9736H70.4951V52.5215Z" fill="white"/>
<path d="M70.4951 59.8779H68.043V62.3301H70.4951V59.8779Z" fill="white"/>
<path d="M70.4951 62.3301H68.043V64.7822H70.4951V62.3301Z" fill="white"/>
<path d="M70.4951 64.7822H68.043V67.2344H70.4951V64.7822Z" fill="white"/>
<path d="M70.4951 74.5908H68.043V77.043H70.4951V74.5908Z" fill="white"/>
<path d="M70.4951 84.3994H68.043V86.8516H70.4951V84.3994Z" fill="white"/>
<path d="M70.4951 91.7559H68.043V94.208H70.4951V91.7559Z" fill="white"/>
<path d="M70.4951 96.6602H68.043V99.1123H70.4951V96.6602Z" fill="white"/>
<path d="M70.4951 99.1123H68.043V101.564H70.4951V99.1123Z" fill="white"/>
<path d="M70.4951 101.564H68.043V104.017H70.4951V101.564Z" fill="white"/>
<path d="M72.9473 35.3564H70.4951V37.8086H72.9473V35.3564Z" fill="white"/>
<path d="M72.9473 50.0693H70.4951V52.5215H72.9473V50.0693Z" fill="white"/>
<path d="M72.9473 52.5215H70.4951V54.9736H72.9473V52.5215Z" fill="white"/>
<path d="M72.9473 59.8779H70.4951V62.3301H72.9473V59.8779Z" fill="white"/>
<path d="M72.9473 67.2344H70.4951V69.6865H72.9473V67.2344Z" fill="white"/>
<path d="M72.9473 69.6865H70.4951V72.1387H72.9473V69.6865Z" fill="white"/>
<path d="M72.9473 74.5908H70.4951V77.043H72.9473V74.5908Z" fill="white"/>
<path d="M72.9473 81.9473H70.4951V84.3994H72.9473V81.9473Z" fill="white"/>
<path d="M72.9473 86.8516H70.4951V89.3037H72.9473V86.8516Z" fill="white"/>
<path d="M72.9473 89.3037H70.4951V91.7559H72.9473V89.3037Z" fill="white"/>
<path d="M72.9473 99.1123H70.4951V101.564H72.9473V99.1123Z" fill="white"/>
<path d="M72.9473 101.564H70.4951V104.017H72.9473V101.564Z" fill="white"/>
<path d="M75.3994 32.9043H72.9473V35.3564H75.3994V32.9043Z" fill="white"/>
<path d="M75.3994 47.6172H72.9473V50.0693H75.3994V47.6172Z" fill="white"/>
<path d="M75.3994 50.0693H72.9473V52.5215H75.3994V50.0693Z" fill="white"/>
<path d="M75.3994 52.5215H72.9473V54.9736H75.3994V52.5215Z" fill="white"/>
<path d="M75.3994 57.4258H72.9473V59.8779H75.3994V57.4258Z" fill="white"/>
<path d="M75.3994 62.3301H72.9473V64.7822H75.3994V62.3301Z" fill="white"/>
<path d="M75.3994 72.1387H72.9473V74.5908H75.3994V72.1387Z" fill="white"/>
<path d="M75.3994 74.5908H72.9473V77.043H75.3994V74.5908Z" fill="white"/>
<path d="M75.3994 81.9473H72.9473V84.3994H75.3994V81.9473Z" fill="white"/>
<path d="M75.3994 84.3994H72.9473V86.8516H75.3994V84.3994Z" fill="white"/>
<path d="M75.3994 86.8516H72.9473V89.3037H75.3994V86.8516Z" fill="white"/>
<path d="M75.3994 89.3037H72.9473V91.7559H75.3994V89.3037Z" fill="white"/>
<path d="M75.3994 91.7559H72.9473V94.208H75.3994V91.7559Z" fill="white"/>
<path d="M77.8516 52.5215H75.3994V54.9736H77.8516V52.5215Z" fill="white"/>
<path d="M77.8516 62.3301H75.3994V64.7822H77.8516V62.3301Z" fill="white"/>
<path d="M77.8516 64.7822H75.3994V67.2344H77.8516V64.7822Z" fill="white"/>
<path d="M77.8516 67.2344H75.3994V69.6865H77.8516V67.2344Z" fill="white"/>
<path d="M77.8516 74.5908H75.3994V77.043H77.8516V74.5908Z" fill="white"/>
<path d="M77.8516 81.9473H75.3994V84.3994H77.8516V81.9473Z" fill="white"/>
<path d="M77.8516 91.7559H75.3994V94.208H77.8516V91.7559Z" fill="white"/>
<path d="M77.8516 101.564H75.3994V104.017H77.8516V101.564Z" fill="white"/>
<path d="M80.3037 52.5215H77.8516V54.9736H80.3037V52.5215Z" fill="white"/>
<path d="M80.3037 64.7822H77.8516V67.2344H80.3037V64.7822Z" fill="white"/>
<path d="M80.3037 77.043H77.8516V79.4951H80.3037V77.043Z" fill="white"/>
<path d="M80.3037 79.4951H77.8516V81.9473H80.3037V79.4951Z" fill="white"/>
<path d="M80.3037 81.9473H77.8516V84.3994H80.3037V81.9473Z" fill="white"/>
<path d="M80.3037 86.8516H77.8516V89.3037H80.3037V86.8516Z" fill="white"/>
<path d="M80.3037 91.7559H77.8516V94.208H80.3037V91.7559Z" fill="white"/>
<path d="M80.3037 96.6602H77.8516V99.1123H80.3037V96.6602Z" fill="white"/>
<path d="M80.3037 101.564H77.8516V104.017H80.3037V101.564Z" fill="white"/>
<path d="M82.7559 54.9736H80.3037V57.4258H82.7559V54.9736Z" fill="white"/>
<path d="M82.7559 57.4258H80.3037V59.8779H82.7559V57.4258Z" fill="white"/>
<path d="M82.7559 64.7822H80.3037V67.2344H82.7559V64.7822Z" fill="white"/>
<path d="M82.7559 72.1387H80.3037V74.5908H82.7559V72.1387Z" fill="white"/>
<path d="M82.7559 74.5908H80.3037V77.043H82.7559V74.5908Z" fill="white"/>
<path d="M82.7559 77.043H80.3037V79.4951H82.7559V77.043Z" fill="white"/>
<path d="M82.7559 81.9473H80.3037V84.3994H82.7559V81.9473Z" fill="white"/>
<path d="M82.7559 91.7559H80.3037V94.208H82.7559V91.7559Z" fill="white"/>
<path d="M82.7559 101.564H80.3037V104.017H82.7559V101.564Z" fill="white"/>
<path d="M85.208 52.5215H82.7559V54.9736H85.208V52.5215Z" fill="white"/>
<path d="M85.208 54.9736H82.7559V57.4258H85.208V54.9736Z" fill="white"/>
<path d="M85.208 57.4258H82.7559V59.8779H85.208V57.4258Z" fill="white"/>
<path d="M85.208 59.8779H82.7559V62.3301H85.208V59.8779Z" fill="white"/>
<path d="M85.208 64.7822H82.7559V67.2344H85.208V64.7822Z" fill="white"/>
<path d="M85.208 69.6865H82.7559V72.1387H85.208V69.6865Z" fill="white"/>
<path d="M85.208 72.1387H82.7559V74.5908H85.208V72.1387Z" fill="white"/>
<path d="M85.208 77.043H82.7559V79.4951H85.208V77.043Z" fill="white"/>
<path d="M85.208 81.9473H82.7559V84.3994H85.208V81.9473Z" fill="white"/>
<path d="M85.208 84.3994H82.7559V86.8516H85.208V84.3994Z" fill="white"/>
<path d="M85.208 86.8516H82.7559V89.3037H85.208V86.8516Z" fill="white"/>
<path d="M85.208 89.3037H82.7559V91.7559H85.208V89.3037Z" fill="white"/>
<path d="M85.208 91.7559H82.7559V94.208H85.208V91.7559Z" fill="white"/>
<path d="M85.208 94.208H82.7559V96.6602H85.208V94.208Z" fill="white"/>
<path d="M85.208 99.1123H82.7559V101.564H85.208V99.1123Z" fill="white"/>
<path d="M87.6602 54.9736H85.208V57.4258H87.6602V54.9736Z" fill="white"/>
<path d="M87.6602 57.4258H85.208V59.8779H87.6602V57.4258Z" fill="white"/>
<path d="M87.6602 59.8779H85.208V62.3301H87.6602V59.8779Z" fill="white"/>
<path d="M87.6602 69.6865H85.208V72.1387H87.6602V69.6865Z" fill="white"/>
<path d="M87.6602 72.1387H85.208V74.5908H87.6602V72.1387Z" fill="white"/>
<path d="M87.6602 77.043H85.208V79.4951H87.6602V77.043Z" fill="white"/>
<path d="M87.6602 81.9473H85.208V84.3994H87.6602V81.9473Z" fill="white"/>
<path d="M87.6602 84.3994H85.208V86.8516H87.6602V84.3994Z" fill="white"/>
<path d="M87.6602 91.7559H85.208V94.208H87.6602V91.7559Z" fill="white"/>
<path d="M90.1123 52.5215H87.6602V54.9736H90.1123V52.5215Z" fill="white"/>
<path d="M90.1123 54.9736H87.6602V57.4258H90.1123V54.9736Z" fill="white"/>
<path d="M90.1123 59.8779H87.6602V62.3301H90.1123V59.8779Z" fill="white"/>
<path d="M90.1123 62.3301H87.6602V64.7822H90.1123V62.3301Z" fill="white"/>
<path d="M90.1123 64.7822H87.6602V67.2344H90.1123V64.7822Z" fill="white"/>
<path d="M90.1123 69.6865H87.6602V72.1387H90.1123V69.6865Z" fill="white"/>
<path d="M90.1123 72.1387H87.6602V74.5908H90.1123V72.1387Z" fill="white"/>
<path d="M90.1123 77.043H87.6602V79.4951H90.1123V77.043Z" fill="white"/>
<path d="M90.1123 79.4951H87.6602V81.9473H90.1123V79.4951Z" fill="white"/>
<path d="M90.1123 89.3037H87.6602V91.7559H90.1123V89.3037Z" fill="white"/>
<path d="M90.1123 91.7559H87.6602V94.208H90.1123V91.7559Z" fill="white"/>
<path d="M90.1123 96.6602H87.6602V99.1123H90.1123V96.6602Z" fill="white"/>
<path d="M90.1123 101.564H87.6602V104.017H90.1123V101.564Z" fill="white"/>
<path d="M92.5645 52.5215H90.1123V54.9736H92.5645V52.5215Z" fill="white"/>
<path d="M92.5645 54.9736H90.1123V57.4258H92.5645V54.9736Z" fill="white"/>
<path d="M92.5645 57.4258H90.1123V59.8779H92.5645V57.4258Z" fill="white"/>
<path d="M92.5645 64.7822H90.1123V67.2344H92.5645V64.7822Z" fill="white"/>
<path d="M92.5645 67.2344H90.1123V69.6865H92.5645V67.2344Z" fill="white"/>
<path d="M92.5645 72.1387H90.1123V74.5908H92.5645V72.1387Z" fill="white"/>
<path d="M92.5645 74.5908H90.1123V77.043H92.5645V74.5908Z" fill="white"/>
<path d="M92.5645 77.043H90.1123V79.4951H92.5645V77.043Z" fill="white"/>
<path d="M92.5645 79.4951H90.1123V81.9473H92.5645V79.4951Z" fill="white"/>
<path d="M92.5645 81.9473H90.1123V84.3994H92.5645V81.9473Z" fill="white"/>
<path d="M92.5645 84.3994H90.1123V86.8516H92.5645V84.3994Z" fill="white"/>
<path d="M92.5645 89.3037H90.1123V91.7559H92.5645V89.3037Z" fill="white"/>
<path d="M92.5645 94.208H90.1123V96.6602H92.5645V94.208Z" fill="white"/>
<path d="M92.5645 99.1123H90.1123V101.564H92.5645V99.1123Z" fill="white"/>
<path d="M95.0166 54.9736H92.5645V57.4258H95.0166V54.9736Z" fill="white"/>
<path d="M95.0166 57.4258H92.5645V59.8779H95.0166V57.4258Z" fill="white"/>
<path d="M95.0166 59.8779H92.5645V62.3301H95.0166V59.8779Z" fill="white"/>
<path d="M95.0166 64.7822H92.5645V67.2344H95.0166V64.7822Z" fill="white"/>
<path d="M95.0166 67.2344H92.5645V69.6865H95.0166V67.2344Z" fill="white"/>
<path d="M95.0166 69.6865H92.5645V72.1387H95.0166V69.6865Z" fill="white"/>
<path d="M95.0166 72.1387H92.5645V74.5908H95.0166V72.1387Z" fill="white"/>
<path d="M95.0166 74.5908H92.5645V77.043H95.0166V74.5908Z" fill="white"/>
<path d="M95.0166 79.4951H92.5645V81.9473H95.0166V79.4951Z" fill="white"/>
<path d="M95.0166 81.9473H92.5645V84.3994H95.0166V81.9473Z" fill="white"/>
<path d="M95.0166 84.3994H92.5645V86.8516H95.0166V84.3994Z" fill="white"/>
<path d="M95.0166 91.7559H92.5645V94.208H95.0166V91.7559Z" fill="white"/>
<path d="M95.0166 94.208H92.5645V96.6602H95.0166V94.208Z" fill="white"/>
<path d="M95.0166 99.1123H92.5645V101.564H95.0166V99.1123Z" fill="white"/>
<path d="M95.0166 101.564H92.5645V104.017H95.0166V101.564Z" fill="white"/>
</mask>
<g mask="url(#mask0_13_2)">
<path d="M95.0166 32.9043H23.9043V104.017H95.0166V32.9043Z" fill="white"/>
</g>
<mask id="mask1_13_2" style="mask-type:luminance" maskUnits="userSpaceOnUse" x="23" y="32" width="19" height="19">
<path d="M26.3564 32.9043H23.9043V35.3564H26.3564V32.9043Z" fill="white"/>
<path d="M26.3564 35.3564H23.9043V37.8086H26.3564V35.3564Z" fill="white"/>
<path d="M26.3564 37.8086H23.9043V40.2607H26.3564V37.8086Z" fill="white"/>
<path d="M26.3564 40.2607H23.9043V42.7129H26.3564V40.2607Z" fill="white"/>
<path d="M26.3564 42.7129H23.9043V45.165H26.3564V42.7129Z" fill="white"/>
<path d="M26.3564 45.165H23.9043V47.6172H26.3564V45.165Z" fill="white"/>
<path d="M26.3564 47.6172H23.9043V50.0693H26.3564V47.6172Z" fill="white"/>
<path d="M28.8086 32.9043H26.3564V35.3564H28.8086V32.9043Z" fill="white"/>
<path d="M28.8086 47.6172H26.3564V50.0693H28.8086V47.6172Z" fill="white"/>
<path d="M31.2607 32.9043H28.8086V35.3564H31.2607V32.9043Z" fill="white"/>
<path d="M31.2607 47.6172H28.8086V50.0693H31.2607V47.6172Z" fill="white"/>
<path d="M33.7129 32.9043H31.2607V35.3564H33.7129V32.9043Z" fill="white"/>
<path d="M33.7129 47.6172H31.2607V50.0693H33.7129V47.6172Z" fill="white"/>
<path d="M36.165 32.9043H33.7129V35.3564H36.165V32.9043Z" fill="white"/>
<path d="M36.165 47.6172H33.7129V50.0693H36.165V47.6172Z" fill="white"/>
<path d="M38.6172 32.9043H36.165V35.3564H38.6172V32.9043Z" fill="white"/>
<path d="M38.6172 47.6172H36.165V50.0693H38.6172V47.6172Z" fill="white"/>
<path d="M41.0693 32.9043H38.6172V35.3564H41.0693V32.9043Z" fill="white"/>
<path d="M41.0693 35.3564H38.6172V37.8086H41.0693V35.3564Z" fill="white"/>
<path d="M41.0693 37.8086H38.6172V40.2607H41.0693V37.8086Z" fill="white"/>
<path d="M41.0693 40.2607H38.6172V42.7129H41.0693V40.2607Z" fill="white"/>
<path d="M41.0693 42.7129H38.6172V45.165H41.0693V42.7129Z" fill="white"/>
<path d="M41.0693 45.165H38.6172V47.6172H41.0693V45.165Z" fill="white"/>
<path d="M41.0693 47.6172H38.6172V50.0693H41.0693V47.6172Z" fill="white"/>
</mask>
<g mask="url(#mask1_13_2)">
<path d="M41.0693 32.9043H23.9043V50.0693H41.0693V32.9043Z" fill="white"/>
</g>
<mask id="mask2_13_2" style="mask-type:luminance" maskUnits="userSpaceOnUse" x="28" y="37" width="9" height="9">
<path d="M31.2607 37.8086H28.8086V40.2607H31.2607V37.8086Z" fill="white"/>
<path d="M31.2607 40.2607H28.8086V42.7129H31.2607V40.2607Z" fill="white"/>
<path d="M31.2607 42.7129H28.8086V45.165H31.2607V42.7129Z" fill="white"/>
<path d="M33.7129 37.8086H31.2607V40.2607H33.7129V37.8086Z" fill="white"/>
<path d="M33.7129 40.2607H31.2607V42.7129H33.7129V40.2607Z" fill="white"/>
<path d="M33.7129 42.7129H31.2607V45.165H33.7129V42.7129Z" fill="white"/>
<path d="M36.165 37.8086H33.7129V40.2607H36.165V37.8086Z" fill="white"/>
<path d="M36.165 40.2607H33.7129V42.7129H36.165V40.2607Z" fill="white"/>
<path d="M36.165 42.7129H33.7129V45.165H36.165V42.7129Z" fill="white"/>
</mask>
<g mask="url(#mask2_13_2)">
<path d="M36.165 37.8086H28.8086V45.165H36.165V37.8086Z" fill="white"/>
</g>
<mask id="mask3_13_2" style="mask-type:luminance" maskUnits="userSpaceOnUse" x="77" y="32" width="19" height="19">
<path d="M80.3037 32.9043H77.8516V35.3564H80.3037V32.9043Z" fill="white"/>
<path d="M80.3037 35.3564H77.8516V37.8086H80.3037V35.3564Z" fill="white"/>
<path d="M80.3037 37.8086H77.8516V40.2607H80.3037V37.8086Z" fill="white"/>
<path d="M80.3037 40.2607H77.8516V42.7129H80.3037V40.2607Z" fill="white"/>
<path d="M80.3037 42.7129H77.8516V45.165H80.3037V42.7129Z" fill="white"/>
<path d="M80.3037 45.165H77.8516V47.6172H80.3037V45.165Z" fill="white"/>
<path d="M80.3037 47.6172H77.8516V50.0693H80.3037V47.6172Z" fill="white"/>
<path d="M82.7559 32.9043H80.3037V35.3564H82.7559V32.9043Z" fill="white"/>
<path d="M82.7559 47.6172H80.3037V50.0693H82.7559V47.6172Z" fill="white"/>
<path d="M85.208 32.9043H82.7559V35.3564H85.208V32.9043Z" fill="white"/>
<path d="M85.208 47.6172H82.7559V50.0693H85.208V47.6172Z" fill="white"/>
<path d="M87.6602 32.9043H85.208V35.3564H87.6602V32.9043Z" fill="white"/>
<path d="M87.6602 47.6172H85.208V50.0693H87.6602V47.6172Z" fill="white"/>
<path d="M90.1123 32.9043H87.6602V35.3564H90.1123V32.9043Z" fill="white"/>
<path d="M90.1123 47.6172H87.6602V50.0693H90.1123V47.6172Z" fill="white"/>
<path d="M92.5645 32.9043H90.1123V35.3564H92.5645V32.9043Z" fill="white"/>
<path d="M92.5645 47.6172H90.1123V50.0693H92.5645V47.6172Z" fill="white"/>
<path d="M95.0166 32.9043H92.5645V35.3564H95.0166V32.9043Z" fill="white"/>
<path d="M95.0166 35.3564H92.5645V37.8086H95.0166V35.3564Z" fill="white"/>
<path d="M95.0166 37.8086H92.5645V40.2607H95.0166V37.8086Z" fill="white"/>
<path d="M95.0166 40.2607H92.5645V42.7129H95.0166V40.2607Z" fill="white"/>
<path d="M95.0166 42.7129H92.5645V45.165H95.0166V42.7129Z" fill="white"/>
<path d="M95.0166 45.165H92.5645V47.6172H95.0166V45.165Z" fill="white"/>
<path d="M95.0166 47.6172H92.5645V50.0693H95.0166V47.6172Z" fill="white"/>
</mask>
<g mask="url(#mask3_13_2)">
<path d="M95.0166 32.9043H77.8516V50.0693H95.0166V32.9043Z" fill="white"/>
</g>
<mask id="mask4_13_2" style="mask-type:luminance" maskUnits="userSpaceOnUse" x="82" y="37" width="9" height="9">
<path d="M85.208 37.8086H82.7559V40.2607H85.208V37.8086Z" fill="white"/>
<path d="M85.208 40.2607H82.7559V42.7129H85.208V40.2607Z" fill="white"/>
<path d="M85.208 42.7129H82.7559V45.165H85.208V42.7129Z" fill="white"/>
<path d="M87.6602 37.8086H85.208V40.2607H87.6602V37.8086Z" fill="white"/>
<path d="M87.6602 40.2607H85.208V42.7129H87.6602V40.2607Z" fill="white"/>
<path d="M87.6602 42.7129H85.208V45.165H87.6602V42.7129Z" fill="white"/>
<path d="M90.1123 37.8086H87.6602V40.2607H90.1123V37.8086Z" fill="white"/>
<path d="M90.1123 40.2607H87.6602V42.7129H90.1123V40.2607Z" fill="white"/>
<path d="M90.1123 42.7129H87.6602V45.165H90.1123V42.7129Z" fill="white"/>
</mask>
<g mask="url(#mask4_13_2)">
<path d="M90.1123 37.8086H82.7559V45.165H90.1123V37.8086Z" fill="white"/>
</g>
<mask id="mask5_13_2" style="mask-type:luminance" maskUnits="userSpaceOnUse" x="23" y="86" width="19" height="19">
<path d="M26.3564 86.8516H23.9043V89.3037H26.3564V86.8516Z" fill="white"/>
<path d="M26.3564 89.3037H23.9043V91.7559H26.3564V89.3037Z" fill="white"/>
<path d="M26.3564 91.7559H23.9043V94.208H26.3564V91.7559Z" fill="white"/>
<path d="M26.3564 94.208H23.9043V96.6602H26.3564V94.208Z" fill="white"/>
<path d="M26.3564 96.6602H23.9043V99.1123H26.3564V96.6602Z" fill="white"/>
<path d="M26.3564 99.1123H23.9043V101.564H26.3564V99.1123Z" fill="white"/>
<path d="M26.3564 101.564H23.9043V104.017H26.3564V101.564Z" fill="white"/>
<path d="M28.8086 86.8516H26.3564V89.3037H28.8086V86.8516Z" fill="white"/>
<path d="M28.8086 101.564H26.3564V104.017H28.8086V101.564Z" fill="white"/>
<path d="M31.2607 86.8516H28.8086V89.3037H31.2607V86.8516Z" fill="white"/>
<path d="M31.2607 101.564H28.8086V104.017H31.2607V101.564Z" fill="white"/>
<path d="M33.7129 86.8516H31.2607V89.3037H33.7129V86.8516Z" fill="white"/>
<path d="M33.7129 101.564H31.2607V104.017H33.7129V101.564Z" fill="white"/>
<path d="M36.165 86.8516H33.7129V89.3037H36.165V86.8516Z" fill="white"/>
<path d="M36.165 101.564H33.7129V104.017H36.165V101.564Z" fill="white"/>
<path d="M38.6172 86.8516H36.165V89.3037H38.6172V86.8516Z" fill="white"/>
<path d="M38.6172 101.564H36.165V104.017H38.6172V101.564Z" fill="white"/>
<path d="M41.0693 86.8516H38.6172V89.3037H41.0693V86.8516Z" fill="white"/>
<path d="M41.0693 89.3037H38.6172V91.7559H41.0693V89.3037Z" fill="white"/>
<path d="M41.0693 91.7559H38.6172V94.208H41.0693V91.7559Z" fill="white"/>
<path d="M41.0693 94.208H38.6172V96.6602H41.0693V94.208Z" fill="white"/>
<path d="M41.0693 96.6602H38.6172V99.1123H41.0693V96.6602Z" fill="white"/>
<path d="M41.0693 99.1123H38.6172V101.564H41.0693V99.1123Z" fill="white"/>
<path d="M41.0693 101.564H38.6172V104.017H41.0693V101.564Z" fill="white"/>
</mask>
<g mask="url(#mask5_13_2)">
<path d="M41.0693 86.8516H23.9043V104.017H41.0693V86.8516Z" fill="white"/>
</g>
<mask id="mask6_13_2" style="mask-type:luminance" maskUnits="userSpaceOnUse" x="28" y="91" width="9" height="9">
<path d="M31.2607 91.7559H28.8086V94.208H31.2607V91.7559Z" fill="white"/>
<path d="M31.2607 94.208H28.8086V96.6602H31.2607V94.208Z" fill="white"/>
<path d="M31.2607 96.6602H28.8086V99.1123H31.2607V96.6602Z" fill="white"/>
<path d="M33.7129 91.7559H31.2607V94.208H33.7129V91.7559Z" fill="white"/>
<path d="M33.7129 94.208H31.2607V96.6602H33.7129V94.208Z" fill="white"/>
<path d="M33.7129 96.6602H31.2607V99.1123H33.7129V96.6602Z" fill="white"/>
<path d="M36.165 91.7559H33.7129V94.208H36.165V91.7559Z" fill="white"/>
<path d="M36.165 94.208H33.7129V96.6602H36.165V94.208Z" fill="white"/>
<path d="M36.165 96.6602H33.7129V99.1123H36.165V96.6602Z" fill="white"/>
</mask>
<g mask="url(#mask6_13_2)">
<path d="M36.165 91.7559H28.8086V99.1123H36.165V91.7559Z" fill="white"/>
</g>
</g>
<defs>
<clipPath id="clip0_13_2">
<rect width="81" height="81" fill="white" transform="translate(19 28)"/>
</clipPath>
</defs>
</svg>
