<svg width="374" height="225" viewBox="0 0 374 225" fill="none" xmlns="http://www.w3.org/2000/svg">
<path d="M30 153.5H344C359.74 153.5 372.5 166.26 372.5 182V223.5H1.5V182C1.5 166.26 14.2599 153.5 30 153.5Z" stroke="white" stroke-width="3"/>
<path d="M232.837 83H253.143C258.666 83 263.143 87.4772 263.143 93V154H106V93C106 87.4772 110.477 83 116 83H143.5" stroke="white" stroke-width="3"/>
<rect x="106" y="122.847" width="157.143" height="16.6633" fill="white"/>
<path d="M166.59 48.5073C176.501 45.4551 197.135 41.716 201.677 38.3554L209.21 27.0092L251.037 51.095C244.165 62.9057 229.905 87.4427 227.843 91.1054C225.782 94.768 219.716 99.6648 216.941 101.655L173.528 127.135C168.572 128.926 160.246 128.329 155.885 121.561C151.524 114.793 152.515 107.826 160.246 101.655L190.378 84.1384L143 82.9441C148.815 73.1239 158.66 54.7975 160.246 52.8865C161.832 50.9756 165.797 48.4409 166.59 48.5073Z" stroke="white" stroke-width="3"/>
<rect x="214.996" y="2.04871" width="65.157" height="24.8368" rx="3.5" transform="rotate(29.9656 214.996 2.04871)" stroke="white" stroke-width="3"/>
</svg>
