<svg width="251" height="502" viewBox="0 0 251 502" fill="none" xmlns="http://www.w3.org/2000/svg">
<rect x="17" y="41" width="216" height="259" fill="#8F8F8F" stroke="black" stroke-width="2"/>
<rect x="17" y="288" width="216" height="182" fill="#606060" stroke="black" stroke-width="2"/>
<rect x="1" y="1" width="249" height="44" rx="9" fill="#3A3A3A" stroke="black" stroke-width="2"/>
<rect x="1" y="457" width="249" height="44" rx="9" fill="#3A3A3A" stroke="black" stroke-width="2"/>
<rect x="44" y="69" width="164" height="191" rx="18" fill="#EAF6FF" stroke="black" stroke-width="2"/>
<path d="M190 70C199.389 70 207 77.6112 207 87V242C207 251.389 199.389 259 190 259H185V70H190Z" fill="#D8ECFE"/>
<rect x="220" y="46" width="14" height="241" fill="black" fill-opacity="0.1"/>
<rect x="220" y="287" width="14" height="169" fill="black" fill-opacity="0.3"/>
<rect x="16" y="356" width="69" height="218" transform="rotate(-90 16 356)" fill="url(#paint0_linear_1_21)" fill-opacity="0.3"/>
<path d="M99.6923 140.692L152.308 193.308M164 167C164 177.078 159.996 186.744 152.87 193.87C145.744 200.996 136.078 205 126 205C115.922 205 106.256 200.996 99.1299 193.87C92.0036 186.744 88 177.078 88 167C88 156.922 92.0036 147.256 99.1299 140.13C106.256 133.004 115.922 129 126 129C136.078 129 145.744 133.004 152.87 140.13C159.996 147.256 164 156.922 164 167Z" stroke="#FF0000" stroke-width="9" stroke-linejoin="round"/>
<defs>
<linearGradient id="paint0_linear_1_21" x1="85" y1="465" x2="16" y2="465" gradientUnits="userSpaceOnUse">
<stop/>
<stop offset="1" stop-color="#666666"/>
</linearGradient>
</defs>
</svg>
